<svg width="32" height="31" viewBox="0 0 32 31" fill="none" xmlns="http://www.w3.org/2000/svg">
<path d="M7.42857 0V10.3448V0ZM24.5714 0V10.3448V0ZM6.35714 15.5172H12.7857H6.35714ZM25.6429 15.5172H19.2143H25.6429ZM6.35714 21.7241H12.7857H6.35714ZM19.2143 21.7241H25.6429H19.2143ZM3.14286 5.17241H28.8571C29.4255 5.17241 29.9705 5.39039 30.3724 5.7784C30.7742 6.16641 31 6.69266 31 7.24138V27.931C31 28.4798 30.7742 29.006 30.3724 29.394C29.9705 29.782 29.4255 30 28.8571 30H3.14286C2.57454 30 2.02949 29.782 1.62763 29.394C1.22576 29.006 1 28.4798 1 27.931V7.24138C1 6.69266 1.22576 6.16641 1.62763 5.7784C2.02949 5.39039 2.57454 5.17241 3.14286 5.17241V5.17241Z" stroke="#989898"/>
</svg>
