<svg width="35" height="35" viewBox="0 0 35 35" fill="none" xmlns="http://www.w3.org/2000/svg">
<path d="M26.25 11.6667C26.25 9.34604 25.3281 7.12045 23.6872 5.4795C22.0462 3.83856 19.8206 2.91669 17.5 2.91669C15.1794 2.91669 12.9538 3.83856 11.3128 5.4795C9.67187 7.12045 8.75 9.34604 8.75 11.6667C8.75 21.875 4.375 24.7917 4.375 24.7917H30.625C30.625 24.7917 26.25 21.875 26.25 11.6667Z" stroke="#303030" stroke-width="2" stroke-linecap="round" stroke-linejoin="round"/>
<path d="M20.0234 30.625C19.767 31.067 19.399 31.4339 18.9562 31.6889C18.5134 31.9439 18.0114 32.0782 17.5005 32.0782C16.9895 32.0782 16.4875 31.9439 16.0447 31.6889C15.6019 31.4339 15.2339 31.067 14.9775 30.625" stroke="#303030" stroke-width="2" stroke-linecap="round" stroke-linejoin="round"/>
</svg>
