<svg width="35" height="33" viewBox="0 0 35 33" fill="none" xmlns="http://www.w3.org/2000/svg">
<path d="M9.4375 15.3125C9.4375 15.4948 9.36507 15.6697 9.23614 15.7986C9.1072 15.9276 8.93234 16 8.75 16C8.56766 16 8.3928 15.9276 8.26386 15.7986C8.13493 15.6697 8.0625 15.4948 8.0625 15.3125C8.0625 15.1302 8.13493 14.9553 8.26386 14.8264C8.3928 14.6974 8.56766 14.625 8.75 14.625C8.93234 14.625 9.1072 14.6974 9.23614 14.8264C9.36507 14.9553 9.4375 15.1302 9.4375 15.3125ZM18.1875 15.3125C18.1875 15.4948 18.1151 15.6697 17.9861 15.7986C17.8572 15.9276 17.6823 16 17.5 16C17.3177 16 17.1428 15.9276 17.0139 15.7986C16.8849 15.6697 16.8125 15.4948 16.8125 15.3125C16.8125 15.1302 16.8849 14.9553 17.0139 14.8264C17.1428 14.6974 17.3177 14.625 17.5 14.625C17.6823 14.625 17.8572 14.6974 17.9861 14.8264C18.1151 14.9553 18.1875 15.1302 18.1875 15.3125ZM26.7361 15.7986C26.6072 15.9276 26.4323 16 26.25 16C26.0677 16 25.8928 15.9276 25.7639 15.7986C25.6349 15.6697 25.5625 15.4948 25.5625 15.3125C25.5625 15.1302 25.6349 14.9553 25.7639 14.8264C25.8928 14.6974 26.0677 14.625 26.25 14.625C26.4323 14.625 26.6072 14.6974 26.7361 14.8264C26.8651 14.9553 26.9375 15.1302 26.9375 15.3125C26.9375 15.4948 26.8651 15.6697 26.7361 15.7986Z" fill="black" stroke="black" stroke-width="3"/>
<path d="M4.79547 24.8893C4.7956 24.8894 4.79574 24.8896 4.79587 24.8897C4.86702 24.9612 4.92155 25.0476 4.95559 25.1426C4.9892 25.2364 5.00201 25.3364 4.99316 25.4356L4.79547 24.8893Z" fill="black" stroke="black" stroke-width="3"/>
</svg>
