<svg width="130" height="36" viewBox="0 0 130 36" fill="none" xmlns="http://www.w3.org/2000/svg">
<path d="M11.25 6C6.69375 6 3 9.69375 3 14.25C3 22.5 12.75 30 18 31.7445C23.25 30 33 22.5 33 14.25C33 9.69375 29.3063 6 24.75 6C21.96 6 19.4925 7.38525 18 9.5055C17.2393 8.42191 16.2286 7.53757 15.0537 6.92737C13.8787 6.31716 12.574 5.99907 11.25 6Z" stroke="black" stroke-opacity="0.5" stroke-width="2" stroke-linecap="round" stroke-linejoin="round"/>
<path d="M59.6602 30.8157H58.043L59.0133 29.5341C59.6602 28.6531 60.0645 27.5317 60.3071 26.17C56.2641 24.3278 54 20.8835 54 16.3981C54 9.50962 59.2559 5.18433 67.7462 5.18433C76.2366 5.18433 81.4925 9.50962 81.4925 16.3981C81.4925 23.4467 76.3174 27.6118 67.7462 27.6118H67.1802C65.8864 29.1336 63.6224 30.8157 59.6602 30.8157ZM67.7462 6.78629C60.1454 6.78629 55.6172 10.3907 55.6172 16.3981C55.6172 21.5243 58.7708 23.9273 61.4391 24.9685L62.0052 25.2088L61.9243 25.8496C61.7626 27.1312 61.52 28.2526 61.0348 29.2137C63.7032 28.8934 65.2396 27.5317 66.129 26.4103L66.3716 26.0899H67.7462C78.6624 26.0899 79.8753 19.3617 79.8753 16.4782C79.8753 10.3907 75.3471 6.78629 67.7462 6.78629Z" fill="black" fill-opacity="0.5"/>
<path d="M103.242 6.75C103.242 5.75544 103.637 4.80161 104.341 4.09835C105.044 3.39509 105.998 3 106.992 3H121.992C122.987 3 123.941 3.39509 124.644 4.09835C125.347 4.80161 125.742 5.75544 125.742 6.75V32.0625C125.742 32.2321 125.696 32.3985 125.609 32.5439C125.522 32.6894 125.397 32.8085 125.247 32.8885C125.098 32.9686 124.929 33.0065 124.76 32.9984C124.591 32.9903 124.426 32.9364 124.285 32.8425L114.492 27.5644L104.699 32.8425C104.558 32.9364 104.394 32.9903 104.224 32.9984C104.055 33.0065 103.887 32.9686 103.737 32.8885C103.588 32.8085 103.463 32.6894 103.376 32.5439C103.288 32.3985 103.242 32.2321 103.242 32.0625V6.75ZM106.992 4.875C106.495 4.875 106.018 5.07254 105.666 5.42417C105.315 5.77581 105.117 6.25272 105.117 6.75V30.3113L113.973 25.6575C114.127 25.5551 114.307 25.5005 114.492 25.5005C114.677 25.5005 114.858 25.5551 115.012 25.6575L123.867 30.3113V6.75C123.867 6.25272 123.67 5.77581 123.318 5.42417C122.966 5.07254 122.489 4.875 121.992 4.875H106.992Z" fill="black" fill-opacity="0.5"/>
</svg>
