<svg width="30" height="30" viewBox="0 0 30 30" fill="none" xmlns="http://www.w3.org/2000/svg">
<path d="M8.75 11.25H2.5V8.75H8.75V11.25ZM8.75 15H2.5V17.5H8.75V15ZM25.7375 23.75L20.95 18.9625C19.95 19.6125 18.775 20 17.5 20C14.05 20 11.25 17.2 11.25 13.75C11.25 10.3 14.05 7.5 17.5 7.5C20.95 7.5 23.75 10.3 23.75 13.75C23.75 15.025 23.3625 16.2 22.7125 17.1875L27.5 21.9875L25.7375 23.75ZM21.25 13.75C21.25 11.6875 19.5625 10 17.5 10C15.4375 10 13.75 11.6875 13.75 13.75C13.75 15.8125 15.4375 17.5 17.5 17.5C19.5625 17.5 21.25 15.8125 21.25 13.75ZM2.5 23.75H15V21.25H2.5V23.75Z" fill="black" fill-opacity="0.5"/>
</svg>
