<svg width="30" height="30" viewBox="0 0 30 30" fill="none" xmlns="http://www.w3.org/2000/svg">
<path d="M8.40185 19.4478C8.46644 19.4478 8.53089 19.4417 8.59433 19.4296L13.86 18.1826L25.0045 7.0381C25.3469 6.69574 25.6184 6.2893 25.8037 5.84199C25.989 5.39468 26.0843 4.91526 26.0843 4.43109C26.0843 3.94693 25.989 3.46751 25.8037 3.0202C25.6184 2.57289 25.3468 2.16646 25.0045 1.8241C24.6621 1.48175 24.2557 1.21018 23.8084 1.0249C23.3611 0.83962 22.8816 0.74426 22.3975 0.744263C21.9133 0.744265 21.4339 0.839631 20.9866 1.02492C20.5393 1.2102 20.1328 1.48177 19.7905 1.82413L8.64595 12.9687L7.40763 18.1943L7.39913 18.2338C7.37081 18.3816 7.37546 18.5337 7.41274 18.6794C7.45002 18.8251 7.51902 18.9608 7.61481 19.0768C7.71059 19.1927 7.8308 19.2861 7.96685 19.3503C8.10291 19.4144 8.25144 19.4477 8.40185 19.4478ZM10.3477 13.9183L21.1167 3.1497C21.2849 2.98145 21.4847 2.84799 21.7045 2.75693C21.9243 2.66588 22.1599 2.61901 22.3979 2.61901C22.6358 2.61901 22.8714 2.66588 23.0912 2.75693C23.3111 2.84799 23.5108 2.98145 23.6791 3.1497C23.8473 3.31794 23.9808 3.51768 24.0718 3.73751C24.1629 3.95733 24.2097 4.19294 24.2097 4.43088C24.2097 4.66882 24.1629 4.90442 24.0718 5.12425C23.9808 5.34407 23.8473 5.54381 23.6791 5.71206L12.9102 16.4808L9.55193 17.2766L10.3477 13.9183Z" fill="black" fill-opacity="0.5"/>
<path d="M27.6562 22.0312H2.34375C1.97092 22.0317 1.61349 22.18 1.34986 22.4436C1.08623 22.7072 0.937934 23.0647 0.9375 23.4375V27.6562C0.937934 28.0291 1.08623 28.3865 1.34986 28.6501C1.61349 28.9138 1.97092 29.0621 2.34375 29.0625H27.6562C28.0291 29.0621 28.3865 28.9138 28.6501 28.6501C28.9138 28.3865 29.0621 28.0291 29.0625 27.6562V23.4375C29.0621 23.0647 28.9138 22.7072 28.6501 22.4436C28.3865 22.18 28.0291 22.0317 27.6562 22.0312ZM27.1875 27.1875H2.8125V23.9062H27.1875V27.1875Z" fill="black" fill-opacity="0.5"/>
</svg>
