<svg width="30" height="30" viewBox="0 0 30 30" fill="none" xmlns="http://www.w3.org/2000/svg">
<path d="M17.375 22.5H12.625C12.4261 22.5 12.2353 22.421 12.0947 22.2803C11.954 22.1397 11.875 21.9489 11.875 21.75V18.875C11.875 18.6761 11.796 18.4853 11.6553 18.3447C11.5147 18.204 11.3239 18.125 11.125 18.125H8.25C8.05109 18.125 7.86032 18.046 7.71967 17.9053C7.57902 17.7647 7.5 17.5739 7.5 17.375V12.625C7.5 12.4261 7.57902 12.2353 7.71967 12.0947C7.86032 11.954 8.05109 11.875 8.25 11.875H11.125C11.3239 11.875 11.5147 11.796 11.6553 11.6553C11.796 11.5147 11.875 11.3239 11.875 11.125V8.25C11.875 8.05109 11.954 7.86032 12.0947 7.71967C12.2353 7.57902 12.4261 7.5 12.625 7.5H17.375C17.5739 7.5 17.7647 7.57902 17.9053 7.71967C18.046 7.86032 18.125 8.05109 18.125 8.25V11.125C18.125 11.3239 18.204 11.5147 18.3447 11.6553C18.4853 11.796 18.6761 11.875 18.875 11.875H21.75C21.9489 11.875 22.1397 11.954 22.2803 12.0947C22.421 12.2353 22.5 12.4261 22.5 12.625V17.375C22.5 17.5739 22.421 17.7647 22.2803 17.9053C22.1397 18.046 21.9489 18.125 21.75 18.125H18.875C18.6761 18.125 18.4853 18.204 18.3447 18.3447C18.204 18.4853 18.125 18.6761 18.125 18.875V21.75C18.125 21.9489 18.046 22.1397 17.9053 22.2803C17.7647 22.421 17.5739 22.5 17.375 22.5V22.5Z" stroke="black" stroke-opacity="0.5" stroke-width="1.5"/>
<path d="M15 27.5C21.9037 27.5 27.5 21.9037 27.5 15C27.5 8.09625 21.9037 2.5 15 2.5C8.09625 2.5 2.5 8.09625 2.5 15C2.5 21.9037 8.09625 27.5 15 27.5Z" stroke="black" stroke-opacity="0.5" stroke-width="1.5" stroke-linecap="round" stroke-linejoin="round"/>
</svg>
