<svg width="30" height="30" viewBox="0 0 30 30" fill="none" xmlns="http://www.w3.org/2000/svg">
<path d="M15 19.375C14.1347 19.375 13.2888 19.1184 12.5694 18.6377C11.8499 18.157 11.2892 17.4737 10.958 16.6742C10.6269 15.8748 10.5403 14.9951 10.7091 14.1465C10.8779 13.2978 11.2946 12.5183 11.9064 11.9064C12.5183 11.2946 13.2978 10.8779 14.1465 10.7091C14.9951 10.5403 15.8748 10.6269 16.6742 10.958C17.4737 11.2892 18.157 11.8499 18.6377 12.5694C19.1184 13.2888 19.375 14.1347 19.375 15C19.375 16.1603 18.9141 17.2731 18.0936 18.0936C17.2731 18.9141 16.1603 19.375 15 19.375ZM15 13.125C14.6292 13.125 14.2667 13.235 13.9583 13.441C13.65 13.647 13.4096 13.9399 13.2677 14.2825C13.1258 14.6251 13.0887 15.0021 13.161 15.3658C13.2334 15.7295 13.412 16.0636 13.6742 16.3258C13.9364 16.5881 14.2705 16.7666 14.6342 16.839C14.9979 16.9113 15.3749 16.8742 15.7175 16.7323C16.0601 16.5904 16.353 16.35 16.559 16.0417C16.765 15.7334 16.875 15.3708 16.875 15C16.875 14.5027 16.6775 14.0258 16.3258 13.6742C15.9742 13.3225 15.4973 13.125 15 13.125Z" fill="black" fill-opacity="0.5"/>
<path d="M10.2677 27C9.65776 26.9964 9.0655 26.7946 8.58023 26.425L5.99273 24.5C5.39562 24.0344 4.99943 23.3579 4.88552 22.6094C4.77161 21.8608 4.94863 21.0971 5.38023 20.475C5.60859 20.1378 5.75372 19.7513 5.8037 19.3471C5.85367 18.9429 5.80708 18.5327 5.66773 18.15L5.59273 17.95C5.49571 17.6036 5.31837 17.285 5.07512 17.0201C4.83186 16.7551 4.52955 16.5512 4.19273 16.425H3.99273C3.26257 16.1795 2.65874 15.6558 2.31237 14.9678C1.96599 14.2797 1.90503 13.4827 2.14273 12.75L3.16773 9.5C3.26209 9.12345 3.4358 8.77141 3.67725 8.46745C3.9187 8.16348 4.2223 7.91461 4.56773 7.7375C4.88942 7.57175 5.24139 7.473 5.60235 7.44722C5.96331 7.42143 6.32575 7.46916 6.66773 7.5875C7.04009 7.71282 7.43741 7.7453 7.82518 7.68212C8.21294 7.61895 8.57941 7.46203 8.89273 7.225L9.05523 7.1C9.33885 6.87369 9.56807 6.58663 9.726 6.25996C9.88392 5.93329 9.96653 5.57534 9.96773 5.2125V4.9125C9.96437 4.14766 10.2633 3.41247 10.7994 2.86698C11.3355 2.32149 12.0655 2.00988 12.8302 2H16.0177C16.3898 2.001 16.7581 2.07551 17.1013 2.21923C17.4445 2.36295 17.7559 2.57307 18.0177 2.8375C18.5681 3.39724 18.8738 4.15253 18.8677 4.9375V5.2875C18.8614 5.63219 18.9361 5.97355 19.086 6.28404C19.2358 6.59453 19.4565 6.86547 19.7302 7.075L19.8677 7.175C20.1483 7.38538 20.4755 7.5248 20.8216 7.58139C21.1677 7.63798 21.5223 7.61006 21.8552 7.5L22.2802 7.3625C22.6403 7.24314 23.0207 7.19752 23.3988 7.22837C23.7769 7.25922 24.1449 7.3659 24.4809 7.54205C24.8169 7.7182 25.1139 7.96021 25.3543 8.25365C25.5948 8.54709 25.7736 8.88594 25.8802 9.25L26.8677 12.4C27.0962 13.128 27.0338 13.9162 26.6935 14.5991C26.3532 15.282 25.7615 15.8065 25.0427 16.0625L24.7927 16.15C24.425 16.2704 24.0925 16.4793 23.8244 16.7583C23.5564 17.0372 23.3609 17.3778 23.2552 17.75C23.1557 18.096 23.1321 18.4594 23.1861 18.8154C23.24 19.1714 23.3702 19.5115 23.5677 19.8125L23.8927 20.2875C24.3237 20.9131 24.4991 21.6798 24.3829 22.4305C24.2667 23.1812 23.8677 23.859 23.2677 24.325L20.7552 26.2625C20.4517 26.4946 20.1038 26.6622 19.7331 26.7548C19.3624 26.8475 18.9766 26.8632 18.5995 26.8012C18.2225 26.7391 17.8621 26.6005 17.5406 26.394C17.2192 26.1874 16.9434 25.9172 16.7302 25.6L16.5802 25.3875C16.3755 25.0798 16.0962 24.829 15.7683 24.6586C15.4404 24.4881 15.0747 24.4034 14.7052 24.4125C14.3527 24.4216 14.0073 24.5135 13.6968 24.6807C13.3863 24.8479 13.1194 25.0857 12.9177 25.375L12.6302 25.7875C12.417 26.1069 12.1407 26.3793 11.8182 26.5878C11.4957 26.7963 11.134 26.9366 10.7552 27C10.5931 27.0159 10.4298 27.0159 10.2677 27ZM5.00523 14.025C5.71109 14.2767 6.34801 14.6906 6.86473 15.2334C7.38145 15.7761 7.76353 16.4326 7.98023 17.15V17.3C8.25015 18.0458 8.33878 18.8451 8.2388 19.6319C8.13882 20.4187 7.8531 21.1704 7.40523 21.825C7.32618 21.9123 7.2824 22.0259 7.2824 22.1437C7.2824 22.2616 7.32618 22.3752 7.40523 22.4625L10.0927 24.5C10.1278 24.5275 10.1683 24.5473 10.2117 24.5578C10.255 24.5684 10.3 24.5696 10.3439 24.5613C10.3877 24.553 10.4292 24.5354 10.4657 24.5098C10.5021 24.4841 10.5327 24.4509 10.5552 24.4125L10.8427 24C11.2763 23.3735 11.8554 22.8614 12.5303 22.5077C13.2052 22.1541 13.9558 21.9693 14.7177 21.9693C15.4797 21.9693 16.2303 22.1541 16.9052 22.5077C17.5801 22.8614 18.1591 23.3735 18.5927 24L18.7427 24.225C18.7965 24.3012 18.8767 24.3547 18.9677 24.375C19.0095 24.3812 19.0521 24.3788 19.0929 24.3681C19.1337 24.3573 19.1719 24.3384 19.2052 24.3125L21.7802 22.3625C21.8704 22.291 21.9297 22.1876 21.9459 22.0737C21.9622 21.9598 21.9342 21.8439 21.8677 21.75L21.5427 21.275C21.1193 20.6575 20.8399 19.9528 20.7252 19.2129C20.6105 18.4729 20.6635 17.7167 20.8802 17C21.0999 16.2467 21.4973 15.5572 22.0389 14.9895C22.5806 14.4217 23.2506 13.9924 23.9927 13.7375L24.2427 13.65C24.3469 13.6083 24.4304 13.527 24.4749 13.424C24.5194 13.3209 24.5213 13.2045 24.4802 13.1L23.5052 9.9875C23.4818 9.93304 23.4476 9.88391 23.4046 9.84308C23.3616 9.80225 23.3108 9.77059 23.2552 9.75C23.2184 9.73133 23.1777 9.7216 23.1365 9.7216C23.0952 9.7216 23.0545 9.73133 23.0177 9.75L22.5927 9.8875C21.8738 10.1248 21.108 10.1839 20.3611 10.0598C19.6143 9.93568 18.9088 9.63205 18.3052 9.175L18.2552 9.0625C17.6761 8.6239 17.2065 8.05702 16.8833 7.40636C16.5602 6.7557 16.3922 6.03899 16.3927 5.3125V4.925C16.395 4.80452 16.3501 4.68791 16.2677 4.6C16.1958 4.53501 16.1022 4.49933 16.0052 4.5H12.8302C12.7793 4.50318 12.7295 4.51638 12.6837 4.53886C12.6379 4.56133 12.597 4.59263 12.5633 4.63095C12.5296 4.66928 12.5038 4.71388 12.4874 4.7622C12.471 4.81051 12.4643 4.86159 12.4677 4.9125V5.225C12.4678 5.9713 12.2965 6.70765 11.9671 7.37731C11.6377 8.04698 11.159 8.63207 10.5677 9.0875L10.4052 9.2125C9.76739 9.69813 9.01989 10.0194 8.2286 10.148C7.43731 10.2766 6.62654 10.2086 5.86773 9.95C5.81095 9.93094 5.74951 9.93094 5.69273 9.95C5.62219 9.99286 5.56906 10.0593 5.54273 10.1375L4.50523 13.4C4.46907 13.5111 4.47754 13.6319 4.52886 13.7369C4.58019 13.8419 4.67033 13.9228 4.78023 13.9625L5.00523 14.025Z" fill="black" fill-opacity="0.5"/>
</svg>
